<?xml version="1.0" encoding="UTF-8"?>
<svg id="Laag_1" xmlns="http://www.w3.org/2000/svg" viewBox="0 0 270.22 270.24">
  <defs>
    <style>
      .cls-1 {
        fill: #ebeaea;
      }
    </style>
  </defs>
  <path class="cls-1" d="M139.3,123.45c2.33-2.8,4.76-5.39,7.62-7.52,13.43-10.04,28.18-12.57,43.95-6.83,10.94,3.98,18.35,11.83,22.36,22.86,1.89,5.19,3.09,10.43,3.08,16-.07,22.4-.04,44.79,0,67.19,0,1.14-.29,1.4-1.41,1.4-10.08-.05-20.17-.04-30.25,0-.97,0-1.22-.26-1.22-1.23.04-18.68.03-37.36.08-56.05,0-3.06-.08-6.09-.91-9.05-2.11-7.56-8-12.52-15.87-13.47-3.58-.43-7.1-.16-10.56.79-7.61,2.09-11.88,7.39-14.01,14.71-.69,2.37-.98,4.81-.98,7.29.02,18.57,0,37.13.03,55.7,0,.98-.16,1.32-1.25,1.32-10.08-.05-20.17-.04-30.25,0-.98,0-1.23-.25-1.22-1.22.03-35.29.03-70.59,0-105.88,0-.95.22-1.26,1.22-1.25,9.46.04,18.92.04,28.38,0,.95,0,1.26.22,1.25,1.22-.05,4.68-.02,9.37-.02,14.05l-.02-.03Z"/>
  <path class="cls-1" d="M89.84,162.44c0,17.59-.01,35.17.03,52.76,0,1.07-.27,1.35-1.34,1.34-10.32-.04-20.64-.04-30.95,0-1.07,0-1.27-.31-1.27-1.31.03-35.25.03-70.51,0-105.76,0-1.03.26-1.3,1.29-1.3,10.32.04,20.64.05,30.95,0,1.14,0,1.31.37,1.31,1.38-.03,17.63-.02,35.25-.02,52.88h0Z"/>
  <path class="cls-1" d="M92.34,72.95c-.03,10.66-8.66,19.18-19.42,19.16-10.56-.02-19.02-8.68-19-19.43.02-10.47,8.65-19,19.21-18.99,10.62,0,19.24,8.65,19.21,19.26Z"/>
</svg>