<?xml version="1.0" encoding="UTF-8"?>
<svg id="Laag_1" xmlns="http://www.w3.org/2000/svg" viewBox="0 0 639.66 188.37">
  <defs>
    <style>
      .cls-1 {
        fill: #232249;
      }

      .cls-2 {
        fill: #e73d28;
      }
    </style>
  </defs>
  <g>
    <path class="cls-1" d="M235.86,87.55c0,.64-.23,1.03-.68,1.16-.46.14-1.19.21-2.19.21-2.92,0-6.07-.68-9.44-2.05-3.37-1.37-6.2-3.15-8.48-5.33-4.38-4.19-6.57-9.8-6.57-16.83v-24.07c0-.91-.46-1.37-1.37-1.37h-7.11c-.91,0-1.37-.46-1.37-1.37l.27-7.25,16.14-17.1.96-.41h6.7c.91,0,1.37.46,1.37,1.37v9.03c0,.91.46,1.37,1.37,1.37h9.03c.91,0,1.37.46,1.37,1.37v11.63c0,.91-.46,1.37-1.37,1.37h-9.03c-.91,0-1.37.46-1.37,1.37v24.07c0,2.1.64,3.99,1.92,5.68,1.28,1.69,2.74,2.71,4.38,3.08,1.92.46,3.3.75,4.17.89.87.14,1.3.62,1.3,1.44v11.76Z"/>
    <path class="cls-1" d="M284.28,40.49c0,1.01-.32,1.51-.96,1.51-.91,0-2.08-.46-3.49-1.37-1.41-.91-3.08-1.37-4.99-1.37-2.65,0-4.88.94-6.7,2.81-1.83,1.88-2.74,4.14-2.74,6.79v37.31c0,.92-.46,1.37-1.37,1.37h-12.86c-.91,0-1.37-.46-1.37-1.37V26.26c0-.91.46-1.37,1.37-1.37h11.63c.91,0,1.37.41,1.37,1.23v1.92c0,.82.41,1.28,1.23,1.37l.82-.41c3.56-2.74,7.02-4.1,10.4-4.1,2.37,0,4.24.23,5.61.68,1.37.45,2.05,1.04,2.05,1.76v13.16Z"/>
    <path class="cls-1" d="M341.46,58.82c0,.91-.46,1.37-1.37,1.37h-32.68c-.92,0-1.37.46-1.37,1.37v3.15c0,2.74.92,5.06,2.76,6.98,1.84,1.91,4.23,2.87,7.17,2.87,2.02,0,3.7-.55,5.03-1.64,1.33-1.09,2.6-2.74,3.79-4.93.82-1.73,1.51-2.6,2.05-2.6.27,0,.5.05.68.14l11.9,5.88c.55.27.82.64.82,1.09,0,.73-.53,1.98-1.57,3.76-1.05,1.78-2.76,3.9-5.13,6.36-4.01,4.19-9.85,6.29-17.51,6.29-3.83,0-7.32-.57-10.46-1.71-3.15-1.14-5.84-2.78-8.07-4.92-2.24-2.14-3.97-4.7-5.2-7.66-1.23-2.96-1.85-6.27-1.85-9.92v-16.96c0-2.1.32-4.26.96-6.5.64-2.23,1.59-4.26,2.87-6.09,2.46-3.74,5.58-6.61,9.37-8.62,3.78-2.01,7.91-3.01,12.38-3.01s8.48,1,12.31,3.01c3.83,2.01,6.93,4.88,9.3,8.62,1.28,1.83,2.23,3.85,2.87,6.09.64,2.24.96,4.4.96,6.5v11.08ZM324.07,47.05c.92,0,1.38-.46,1.38-1.37s-.25-1.82-.76-2.74c-.5-.91-1.22-1.75-2.14-2.53-.92-.77-1.95-1.39-3.1-1.85-1.15-.46-2.32-.68-3.51-.68-2.66,0-4.94.84-6.82,2.53-1.88,1.69-2.82,3.49-2.82,5.4,0,.82.46,1.23,1.38,1.23h16.39Z"/>
    <path class="cls-1" d="M406.16,86.18c0,.91-.45,1.37-1.35,1.37h-12.88c-.9,0-1.36-.46-1.36-1.37v-37.21c0-2.74-.92-5.04-2.76-6.91-1.84-1.87-4.18-2.81-7.02-2.81s-5.33.94-7.16,2.81c-1.84,1.87-2.76,4.17-2.76,6.91v37.21c0,.91-.46,1.37-1.37,1.37h-12.86c-.91,0-1.37-.46-1.37-1.37V26.26c0-.91.46-1.37,1.37-1.37h11.63c.55,0,.91.14,1.09.41.18.27.32.59.41.96.09.36.18.68.27.96.09.27.27.41.55.41.36,0,.87-.14,1.5-.41.64-.27,1.41-.59,2.33-.96.91-.36,1.98-.68,3.21-.96,1.23-.27,2.62-.41,4.17-.41,3.46,0,6.68.59,9.64,1.78,2.96,1.19,5.54,2.83,7.73,4.92,2.19,2.1,3.9,4.63,5.13,7.59,1.23,2.96,1.85,6.22,1.85,9.78v37.21Z"/>
    <path class="cls-1" d="M471,86.18c0,.91-.45,1.37-1.35,1.37h-11.52c-.54,0-.9-.14-1.08-.41-.18-.27-.29-.59-.34-.96-.05-.36-.11-.68-.2-.96-.09-.27-.32-.41-.68-.41-.83,0-2.11.46-3.85,1.37-1.74.91-4.17,1.37-7.28,1.37-3.57,0-6.87-.59-9.89-1.78-3.02-1.18-5.63-2.82-7.83-4.92-2.2-2.1-3.91-4.65-5.15-7.66s-1.85-6.29-1.85-9.85v-14.36c0-3.47.59-6.66,1.78-9.58,1.19-2.92,2.86-5.45,5.01-7.59,2.15-2.14,4.64-3.83,7.48-5.06,2.84-1.23,5.91-1.85,9.2-1.85,2.93,0,5.31.46,7.14,1.37,1.83.91,3.11,1.37,3.85,1.37.64,0,.96-.5.96-1.51V2.74c0-.91.45-1.37,1.35-1.37h12.88c.9,0,1.35.46,1.35,1.37v83.44ZM455.4,48.97c0-2.74-.93-5.04-2.77-6.91-1.85-1.87-4.21-2.81-7.08-2.81s-5.36.94-7.21,2.81c-1.85,1.87-2.77,4.17-2.77,6.91v14.36c0,2.83.92,5.18,2.77,7.05,1.85,1.87,4.25,2.8,7.21,2.8s5.22-.93,7.08-2.8c1.85-1.87,2.77-4.22,2.77-7.05v-14.36Z"/>
    <path class="cls-1" d="M503.69,9.16c0,2.46-.91,4.61-2.74,6.43-1.83,1.83-3.97,2.74-6.43,2.74s-4.72-.89-6.5-2.67c-1.78-1.78-2.67-3.94-2.67-6.5s.89-4.72,2.67-6.5c1.78-1.78,3.94-2.67,6.5-2.67s4.6.91,6.43,2.74c1.82,1.83,2.74,3.97,2.74,6.43ZM502.32,86.18c0,.91-.46,1.37-1.37,1.37h-12.86c-.91,0-1.37-.46-1.37-1.37V26.26c0-.91.46-1.37,1.37-1.37h12.86c.91,0,1.37.46,1.37,1.37v59.91Z"/>
    <path class="cls-1" d="M569.08,86.18c0,.91-.45,1.37-1.35,1.37h-12.88c-.9,0-1.36-.46-1.36-1.37v-37.21c0-2.74-.92-5.04-2.76-6.91-1.84-1.87-4.18-2.81-7.02-2.81s-5.33.94-7.16,2.81c-1.84,1.87-2.76,4.17-2.76,6.91v37.21c0,.91-.46,1.37-1.37,1.37h-12.86c-.91,0-1.37-.46-1.37-1.37V26.26c0-.91.46-1.37,1.37-1.37h11.63c.55,0,.91.14,1.09.41.18.27.32.59.41.96.09.36.18.68.27.96.09.27.27.41.55.41.36,0,.87-.14,1.5-.41.64-.27,1.41-.59,2.33-.96.91-.36,1.98-.68,3.21-.96,1.23-.27,2.62-.41,4.17-.41,3.46,0,6.68.59,9.64,1.78,2.96,1.19,5.54,2.83,7.73,4.92,2.19,2.1,3.9,4.63,5.13,7.59,1.23,2.96,1.85,6.22,1.85,9.78v37.21Z"/>
    <path class="cls-1" d="M639.66,99.99c0,2.65-.48,5.08-1.43,7.32-.96,2.23-2.3,4.17-4.02,5.81-1.73,1.64-3.8,2.92-6.21,3.83-2.41.91-5.07,1.37-7.98,1.37h-17.47c-2.91,0-5.57-.46-7.98-1.37-2.41-.91-4.48-2.19-6.21-3.83-1.73-1.64-3.07-3.58-4.03-5.81-.96-2.24-1.43-4.67-1.43-7.32v-2.6c0-2.65.5-4.77,1.5-6.36,1-1.6,2.19-3.21,3.56-4.86.73-.73,1.3-1.3,1.71-1.71.41-.41.62-.84.62-1.3s-.23-1.21-.68-2.26c-.46-1.05-.68-2.48-.68-4.31,0-2,.32-3.65.96-4.92.64-1.28.96-2.19.96-2.74,0-.36-.14-.68-.41-.96-.82-1.09-1.66-2.21-2.53-3.35-.87-1.14-1.69-2.39-2.46-3.76-.78-1.37-1.39-2.92-1.85-4.65-.46-1.73-.68-3.74-.68-6.02v-1.23c0-3.37.63-6.54,1.91-9.51,1.27-2.96,3-5.52,5.19-7.66,2.18-2.14,4.78-3.83,7.78-5.06,3-1.23,6.23-1.85,9.69-1.85,3,0,5.41.46,7.23,1.37,1.82.91,3.14,1.37,3.96,1.37.27,0,.46-.14.54-.41.09-.27.16-.59.2-.96.05-.36.16-.68.34-.96.18-.27.55-.41,1.09-.41h11.6c.91,0,1.36.46,1.36,1.37v23.94c0,3.56-.64,6.84-1.91,9.85-1.27,3.01-3.07,5.56-5.38,7.66-2.32,2.1-5.15,3.74-8.51,4.92-3.36,1.19-7.13,1.78-11.3,1.78h-2.04c-.64.64-.95,1.37-.95,2.19,0,.73.36,1.55,1.09,2.46h15.26c2.91,0,5.56.46,7.97,1.37,2.41.91,4.47,2.19,6.2,3.83,1.73,1.64,3.07,3.58,4.02,5.81.95,2.23,1.43,4.67,1.43,7.32v2.6ZM618.18,48.97c0-2.74-.92-5.04-2.76-6.91-1.84-1.87-4.18-2.81-7.03-2.81s-5.33.94-7.16,2.81c-1.84,1.87-2.76,4.17-2.76,6.91v1.23c0,2.74.92,5.06,2.76,6.98,1.84,1.92,4.22,2.87,7.16,2.87,2.76,0,5.07-.96,6.96-2.87,1.88-1.92,2.82-4.24,2.82-6.98v-1.23ZM624.06,97.39c0-1.19-.37-2.14-1.1-2.87-.74-.73-1.7-1.09-2.89-1.09h-17.6c-1.19,0-2.15.36-2.89,1.09-.74.73-1.1,1.69-1.1,2.87v2.6c0,1.18.37,2.14,1.1,2.87.73.73,1.69,1.09,2.89,1.09h17.6c1.1,0,2.04-.39,2.82-1.16.78-.78,1.17-1.71,1.17-2.81v-2.6Z"/>
  </g>
  <g>
    <path class="cls-2" d="M235.86,187c0,.64-.23,1.03-.68,1.16-.46.14-1.19.21-2.19.21-2.92,0-6.07-.68-9.44-2.05-3.37-1.37-6.2-3.15-8.48-5.33-4.38-4.19-6.57-9.8-6.57-16.83v-24.07c0-.91-.46-1.37-1.37-1.37h-7.11c-.91,0-1.37-.46-1.37-1.37l.27-7.25,16.14-17.1.96-.41h6.7c.91,0,1.37.46,1.37,1.37v9.03c0,.91.46,1.37,1.37,1.37h9.03c.91,0,1.37.46,1.37,1.37v11.63c0,.91-.46,1.37-1.37,1.37h-9.03c-.91,0-1.37.46-1.37,1.37v24.07c0,2.1.64,3.99,1.92,5.68,1.28,1.69,2.74,2.71,4.38,3.08,1.92.46,3.3.75,4.17.89.87.14,1.3.62,1.3,1.44v11.76Z"/>
    <path class="cls-2" d="M298.78,185.63c0,.91-.46,1.37-1.37,1.37h-11.63c-.55,0-.91-.14-1.09-.41-.18-.27-.32-.57-.41-.89-.09-.32-.18-.62-.27-.89-.09-.27-.27-.41-.55-.41-.73,0-1.89.43-3.49,1.3-1.6.87-3.63,1.3-6.09,1.3h-5.2c-2.83,0-5.43-.46-7.8-1.37-2.37-.91-4.4-2.19-6.09-3.83-1.69-1.64-3.01-3.58-3.97-5.81-.96-2.23-1.44-4.67-1.44-7.32v-.68c0-5.47,1.78-9.89,5.33-13.27,3.56-3.37,8.21-5.06,13.95-5.06h13.13c.91,0,1.37-.41,1.37-1.23v-.27l-.14-1.64c-.27-2.82-1.28-5.06-3.01-6.7-1.73-1.64-4.01-2.46-6.84-2.46-1.28,0-2.6.36-3.97,1.09-1.37.73-2.55,1.73-3.56,3.01-1,1.28-1.71,2.35-2.12,3.21-.41.87-.89,1.3-1.44,1.3-.18,0-.46-.09-.82-.27l-11.22-5.88c-.55-.27-.82-.59-.82-.96,0-.55.5-1.78,1.51-3.69,1-1.92,2.69-4.01,5.06-6.29,4.01-3.92,9.8-5.88,17.37-5.88,3.83,0,7.32.57,10.47,1.71,3.15,1.14,5.83,2.76,8.07,4.86,2.23,2.1,3.97,4.63,5.2,7.59,1.23,2.96,1.85,6.27,1.85,9.92v38.57ZM268.69,162.78c-1,0-1.87.39-2.6,1.16-.73.78-1.09,1.67-1.09,2.67v2.05c0,1.19.34,2.14,1.03,2.87.68.73,1.57,1.09,2.67,1.09h5.2c4.29,0,7.34-2.55,9.17-7.66v-1.16c0-.23.04-.57.14-1.03h-14.5Z"/>
    <path class="cls-2" d="M330.1,185.63c0,.91-.46,1.37-1.37,1.37h-12.86c-.91,0-1.37-.46-1.37-1.37v-83.44c0-.91.46-1.37,1.37-1.37h12.86c.91,0,1.37.46,1.37,1.37v83.44Z"/>
    <path class="cls-2" d="M400.69,184.95c.18.36.27.68.27.96,0,.73-.5,1.09-1.51,1.09h-16l-1.23-.68-15.73-25.85c-.27-.55-.64-.82-1.09-.82-.37,0-.73.18-1.09.55l-2.2,2.19-.41.96v22.3c0,.91-.46,1.37-1.38,1.37h-12.97c-.91,0-1.37-.46-1.37-1.37v-83.44c0-.91.46-1.37,1.37-1.37h12.97c.92,0,1.38.46,1.38,1.37v37.48c0,1,.41,1.5,1.24,1.5.36,0,.73-.18,1.09-.55l14.5-15.87.96-.41h16.28c1,0,1.5.36,1.5,1.09,0,.46-.18.87-.55,1.23l-18.88,19.29c-.37.55-.55.87-.55.96s.09.32.27.68l23.12,37.35Z"/>
    <path class="cls-2" d="M432.56,122.98c6.29,0,11.54,1.55,15.73,4.65,1.28.91,2.42,1.94,3.42,3.08,1,1.14,1.85,2.24,2.53,3.28.68,1.05,1.21,2.03,1.57,2.94.36.91.55,1.55.55,1.91,0,.46-.27.82-.82,1.09l-11.17,5.47c-.18.09-.41.14-.68.14-.36,0-.73-.27-1.09-.82-.73-1.09-1.39-2.1-1.98-3.01-.59-.91-1.25-1.73-1.98-2.46-.73-.73-1.57-1.3-2.52-1.71-.95-.41-2.11-.61-3.47-.61h-3.95c-5,0-7.49,1.73-7.49,5.2,0,1.37.45,2.39,1.36,3.08s2.17,1.21,3.8,1.57c1.63.36,3.58.73,5.84,1.09,2.26.36,4.8.91,7.61,1.64,5.56,1.55,9.66,3.65,12.31,6.29,2.64,2.65,3.97,6.25,3.97,10.81,0,3.19-.55,6.13-1.64,8.82-1.09,2.69-2.67,4.99-4.72,6.91-2.05,1.92-4.54,3.4-7.46,4.45-2.92,1.05-6.16,1.57-9.71,1.57h-3.97c-7.66,0-13.59-2.23-17.78-6.7-2.1-2.19-3.6-4.15-4.51-5.88-.91-1.73-1.37-2.92-1.37-3.56,0-.36.27-.68.82-.96l11.22-5.47c.18-.09.41-.14.68-.14s.64.32,1.09.96c1.37,2.28,2.69,4.15,3.97,5.61,1.28,1.46,3.24,2.19,5.88,2.19h3.97c2.46,0,4.4-.55,5.81-1.64,1.41-1.09,2.12-2.51,2.12-4.24,0-1.37-.45-2.37-1.36-3.01-.91-.64-2.17-1.14-3.8-1.5-1.63-.36-3.6-.71-5.91-1.03-2.31-.32-4.87-.84-7.67-1.57-5.52-1.37-9.59-3.42-12.21-6.15-2.62-2.74-3.93-6.43-3.93-11.08,0-3.1.57-5.95,1.71-8.55,1.14-2.6,2.71-4.83,4.72-6.7,2.01-1.87,4.42-3.33,7.25-4.38,2.83-1.05,5.93-1.57,9.3-1.57h3.97Z"/>
  </g>
  <path class="cls-1" d="M24.17,15.36c0,12.91.27,24.62-.13,36.3-.17,5.05,1.59,6.21,6.22,5.94,6.28-.36,12.61.04,18.91-.14,3.04-.09,4.46.6,4.28,4.02-.27,5.24-.29,10.51,0,15.75.21,3.64-1.26,4.4-4.54,4.29-6.65-.21-13.31.1-19.96-.13-3.53-.12-4.9.79-4.86,4.62.12,13.13,0,26.26-.31,39.39-.09,3.9,1.05,5.24,5.02,5.06,6.64-.3,13.32.17,19.96-.16,4.65-.23,4.81,1.6,3.65,5.25-3.89,12.23-16.03,20.14-28.93,18.65-13.02-1.5-22.76-11.77-23.25-25.05-.34-9.09-.1-18.21-.11-27.31C.1,78.72.21,55.61,0,32.5c-.04-3.94,1.2-5.93,4.74-7.49,6.21-2.74,12.19-6.02,19.42-9.65Z"/>
  <path class="cls-2" d="M80.36,155.21c-8.71,20.6-28.31,30.02-50.54,31.06-2.67.12-3.85-.8-3.81-3.57.09-6.64.13-13.3-.01-19.94-.08-3.29,1.89-3.41,4.34-3.79,14.75-2.32,24.96-11.92,27.61-25.73,1.41-7.32,1.01-7.83-6.23-7.83-6.3-.01-12.6-.17-18.9.06-3.45.12-4.05-1.43-4-4.4.17-10.15.24-20.3.11-30.45-.04-3.25,1.09-4.25,4.25-4.18,8.05.17,16.11.06,24.16.06v-.02c2.74,0,5.48,0,8.22.01.05,14.32.1,28.64.18,42.96.01,2.78.24,5.62.85,8.33,1.8,7.95,6.95,14.17,13.77,17.43Z"/>
  <path class="cls-2" d="M84.33,140.85c-.49,3.23-1.18,6.27-2.06,9.12-5.16-3.51-8.97-8.92-10.47-15.53-.61-2.7-.84-5.55-.85-8.33-.07-13.21-.12-26.41-.17-39.62,3.57,0,7.14-.01,10.71-.03,2.18-.02,3.81.25,3.73,3.02-.54,17.13,1.68,34.36-.89,51.37Z"/>
  <path class="cls-2" d="M127.8,86.49c8.23,0,16.45.03,24.68-.01,2.1,0,3.96.11,3.89,2.9-.48,18.51,1.95,37.2-1.95,55.49-6.18,28.93-29.13,40.34-53.57,41.39-2.76.12-3.72-1.03-3.67-3.7.1-5.95.22-11.91-.04-17.84-.16-3.79.78-5.37,4.96-6.04,14.06-2.27,24.32-12.89,26.33-26.35.97-6.48.6-6.92-5.78-6.93-6.48,0-12.95-.08-19.43.03-2.71.05-4.21-.45-4.16-3.69.16-10.5.15-21,0-31.5-.04-3.12,1.25-3.84,4.07-3.8,8.22.13,16.45.05,24.68.05Z"/>
  <path class="cls-1" d="M94.17,84.73c-.04.37-.06.78-.05,1.24.22,13.3.17,26.61.02,39.92-.03,3.37.96,4.65,4.46,4.54,7-.23,14.01.1,21.01-.14,3.53-.12,4.19,1.06,3.38,4.27-1.86,7.37-7.2,13.54-14.09,16.94-3.67,1.82-7.78,2.86-12.03,2.87-5.41.02-10.44-1.57-14.6-4.4-5.16-3.51-8.97-8.92-10.47-15.53-.61-2.7-.84-5.55-.85-8.33-.07-13.21-.12-26.41-.17-39.62-.06-18.13-.14-36.27-.28-54.4-.02-1.9.26-3.33,1.04-4.47.64-.94,1.63-1.69,3.08-2.35,6.34-2.86,12.47-6.2,19.59-9.79,0,13.17.11,25.22-.08,37.27-.05,3.57.87,4.97,4.65,4.82,6.82-.27,13.66.07,20.48-.13,3.25-.09,4.82.58,4.61,4.28-.31,5.24-.27,10.51-.01,15.75.16,3.4-1.21,4.13-4.3,4.04-.3-.01-.6-.02-.9-.02-6.53-.17-13.06.08-19.59-.1-3.03-.09-4.63.5-4.9,3.34Z"/>
</svg>