<?xml version="1.0" encoding="UTF-8"?>
<svg id="Laag_1" xmlns="http://www.w3.org/2000/svg" viewBox="0 0 111.56 111.56">
  <defs>
    <style>
      .cls-1 {
        fill: #232246;
      }

      .cls-2 {
        fill: #f5f5f5;
      }
    </style>
  </defs>
  <circle class="cls-2" cx="55.78" cy="55.78" r="55.78"/>
  <path class="cls-1" d="M39.45,56.8c0-8.22,0-16.44,0-24.67,0-.41.04-.82.15-1.22.38-1.34,1.89-1.94,3.13-1.22,3.65,2.09,7.3,4.2,10.94,6.3,4.62,2.66,9.24,5.33,13.86,8,4.73,2.73,9.46,5.47,14.19,8.21,1.63.94,3.27,1.86,4.88,2.81,1.42.84,1.39,2.72-.04,3.54-4.63,2.68-9.26,5.37-13.9,8.05-6.2,3.59-12.41,7.18-18.62,10.77-3.68,2.13-7.38,4.23-11.06,6.37-1.78,1.04-3.43.18-3.54-1.88-.02-.41,0-.82,0-1.23,0-7.94,0-15.88,0-23.82Z"/>
</svg>