<?xml version="1.0" encoding="UTF-8"?>
<svg id="Laag_1" xmlns="http://www.w3.org/2000/svg" viewBox="0 0 475.28 372.16">
  <defs>
    <style>
      .cls-1 {
        fill: #23234b;
      }
    </style>
  </defs>
  <path class="cls-1" d="M112.82.08c-35.85,0-71.7.06-107.55-.08C1.25-.02.02.87.03,5.01c.15,59.68.15,119.35-.02,179.03-.01,4.3,1.53,4.86,5.34,4.85,29.41-.13,58.82.01,88.23-.17,3.96-.03,4.92.98,4.76,4.73-.93,21.81-6.45,42.08-20.35,59.66-11.51,14.55-27.33,22.67-44.82,28.18-9.26,2.92-18.71,5.16-28.37,6.4-3.45.44-4.84,1.52-4.8,5.35.23,24.92.18,49.84.06,74.76-.01,3.15.62,4.45,4.22,4.36,71.06-1.63,131.57-25.93,177.76-79.7,27.43-31.93,42.03-69.42,42.73-111.01.94-55.58.23-111.18.24-166.77,0-3.56-.14-7.13.06-10.68.17-3.08-.91-4.01-4.18-3.98-20.19.16-40.37.08-60.56.08-15.84,0-31.67,0-47.51,0v-.02Z"/>
  <path class="cls-1" d="M362.85.08c-35.85,0-71.7.06-107.55-.08-4.01-.02-5.25.87-5.24,5.01.15,59.68.15,119.35-.02,179.03-.01,4.3,1.53,4.86,5.34,4.85,29.41-.13,58.82.01,88.23-.17,3.96-.03,4.92.98,4.76,4.73-.93,21.81-6.45,42.08-20.35,59.66-11.51,14.55-27.33,22.67-44.82,28.18-9.26,2.92-18.71,5.16-28.37,6.4-3.45.44-4.84,1.52-4.8,5.35.23,24.92.18,49.84.06,74.76-.01,3.15.62,4.45,4.22,4.36,71.06-1.63,131.57-25.93,177.76-79.7,27.43-31.93,42.03-69.42,42.73-111.01.94-55.58.23-111.18.24-166.77,0-3.56-.14-7.13.06-10.68.17-3.08-.91-4.01-4.18-3.98-20.19.16-40.37.08-60.56.08-15.84,0-31.67,0-47.51,0v-.02Z"/>
</svg>