<?xml version="1.0" encoding="UTF-8"?>
<svg id="Laag_1" xmlns="http://www.w3.org/2000/svg" viewBox="0 0 461.03 160.46">
  <defs>
    <style>
      .cls-1 {
        fill: #232246;
      }

      .cls-2 {
        fill: #f5f5f5;
      }
    </style>
  </defs>
  <g>
    <circle class="cls-2" cx="405.25" cy="71.84" r="55.78"/>
    <path class="cls-1" d="M388.91,72.86c0-8.22,0-16.44,0-24.67,0-.41.04-.82.15-1.22.38-1.34,1.89-1.94,3.13-1.22,3.65,2.09,7.3,4.2,10.94,6.3,4.62,2.66,9.24,5.33,13.86,8,4.73,2.73,9.46,5.47,14.19,8.21,1.63.94,3.27,1.86,4.88,2.81,1.42.84,1.39,2.72-.04,3.54-4.63,2.68-9.26,5.37-13.9,8.05-6.2,3.59-12.41,7.18-18.62,10.77-3.68,2.13-7.38,4.23-11.06,6.37-1.78,1.04-3.43.18-3.54-1.88-.02-.41,0-.82,0-1.23,0-7.94,0-15.88,0-23.82Z"/>
  </g>
  <g>
    <path class="cls-2" d="M4.34,62.85c1.55-1.51,3.24-2.89,6.17-2.8,3.01.08,5.51,1.69,5.57,3.99.15,5.87.12,11.75.01,17.62-.04,2.02-1.72,3.32-4.46,3.82-2.64.48-4.67-.25-6.29-1.74-.32-.3-.28-.83-1.01-.89v-20Z"/>
    <path class="cls-2" d="M170.6,72.85c0-19.44,0-38.88,0-58.32,0-.9-.05-1.83.26-2.69.64-1.81,3.37-3.08,5.97-2.96,2.69.13,5.02,1.57,5.42,3.45.17.82.11,1.66.11,2.49,0,38.67,0,77.34,0,116.01,0,3.94-1.94,5.93-5.81,5.97-3.98.04-5.96-1.98-5.96-6.07,0-19.3,0-38.6,0-57.9Z"/>
    <path class="cls-2" d="M158.63,72.84c0,12.56.01,25.11,0,37.67,0,3.17-2.27,4.98-6.02,4.93-2.97-.04-5.32-1.56-5.67-3.68-.08-.48-.07-.97-.07-1.45,0-24.97,0-49.95,0-74.92,0-3.02,1.68-4.74,4.87-5.08,3.94-.42,6.84,1.4,6.88,4.45.07,5.2.02,10.41.02,15.61,0,7.49,0,14.98,0,22.48Z"/>
    <path class="cls-2" d="M206.13,72.87c0,12.56-.02,25.11.02,37.67,0,1.96-.72,3.55-3.31,4.47-3.68,1.32-7.94-.34-8.42-3.28-.09-.55-.07-1.11-.07-1.66,0-24.84,0-49.67,0-74.51,0-3.28,1.76-5.04,5.2-5.29,3.84-.27,6.54,1.53,6.56,4.5.05,5.83.02,11.65.02,17.48,0,6.87,0,13.74,0,20.6Z"/>
    <path class="cls-2" d="M63.66,72.83c0,12.49.01,24.97,0,37.46,0,3.36-2.21,5.2-6.03,5.14-2.97-.04-5.33-1.55-5.71-3.67-.08-.41-.05-.83-.05-1.25,0-25.11,0-50.23,0-75.34,0-3.14,2.29-4.98,6.03-4.93,2.99.04,5.3,1.52,5.66,3.68.13.75.1,1.52.1,2.29,0,12.21,0,24.42,0,36.63Z"/>
    <path class="cls-2" d="M253.63,72.83c0,12.63.01,25.25-.01,37.88,0,3.05-2.51,4.88-6.31,4.72-2.74-.11-4.92-1.5-5.35-3.45-.12-.54-.13-1.11-.13-1.66,0-24.97,0-49.95,0-74.92,0-3.01,1.7-4.75,4.86-5.09,4.03-.44,6.92,1.45,6.93,4.64.03,10.54.01,21.09.01,31.63,0,2.08,0,4.16,0,6.24Z"/>
    <path class="cls-2" d="M123.11,72.84c0-7.01-.04-14.01.02-21.02.02-3.04,2.94-4.88,6.87-4.45,2.87.31,4.8,1.91,4.85,4.24.08,3.75.03,7.49.03,11.24,0,10.27.02,20.54-.01,30.8,0,2.74-1.95,4.45-5.15,4.69-3.82.29-6.57-1.52-6.59-4.48-.05-7.01-.02-14.01-.02-21.02Z"/>
    <path class="cls-2" d="M75.61,72.76c0-7.01-.02-14.01.02-21.02.01-2.15,1.63-3.82,4.13-4.27,2.54-.45,4.78-.05,6.47,1.5.95.87,1.17,1.88,1.17,2.93,0,13.95.02,27.89-.02,41.84,0,2.88-2.32,4.63-5.85,4.64-3.63.01-5.91-1.8-5.92-4.8-.03-6.94,0-13.88,0-20.81Z"/>
    <path class="cls-2" d="M229.88,73.06c0,6.94.04,13.88-.02,20.81-.03,3.32-4.01,5.41-8.02,4.25-2.87-.83-3.79-2.53-3.78-4.69.05-9.44.02-18.87.02-28.31,0-4.3-.03-8.6,0-12.9.03-3.16,2.3-4.98,6.04-4.92,3.6.06,5.73,1.87,5.74,4.94.02,6.94,0,13.88,0,20.81Z"/>
    <path class="cls-2" d="M39.93,73.06c0,6.52,0,13.04,0,19.57,0,.69,0,1.39-.11,2.08-.39,2.17-2.68,3.64-5.67,3.68-3.08.04-5.63-1.49-5.97-3.7-.16-1.03-.07-2.08-.07-3.12,0-13.11,0-26.23,0-39.34,0-2.8,1.79-4.52,4.91-4.86,4.02-.43,6.86,1.43,6.89,4.67.06,7.01.02,14.01.02,21.02Z"/>
    <path class="cls-2" d="M277.38,73.06c0,6.94.05,13.88-.02,20.81-.03,3.32-4.02,5.4-8.04,4.25-2.89-.83-3.8-2.55-3.79-4.69.05-6.38.02-12.77.02-19.15,0-7.35-.02-14.71.01-22.06.01-2.63,1.59-4.31,4.34-4.8,4.04-.71,7.43,1.23,7.46,4.4.06,7.08.02,14.15.02,21.23Z"/>
    <path class="cls-2" d="M289.28,72.83c0-2.7-.07-5.4.02-8.1.09-2.8,2.49-4.68,5.86-4.7,3.46-.02,5.96,1.95,5.98,4.83.03,5.33.03,10.66,0,15.99-.02,2.86-2.57,4.85-6.01,4.81-3.38-.04-5.74-1.9-5.82-4.73-.08-2.7-.02-5.4-.02-8.1Z"/>
    <path class="cls-2" d="M99.36,72.57c0-2.7-.05-5.4.01-8.1.06-2.56,2.63-4.45,5.89-4.44,3.3,0,5.82,1.84,5.85,4.46.07,5.6.08,11.21-.01,16.81-.04,2.56-2.75,4.41-6.01,4.34-3.17-.07-5.64-1.9-5.71-4.36-.08-2.91-.02-5.81-.02-8.72Z"/>
  </g>
</svg>