<?xml version="1.0" encoding="UTF-8"?>
<svg id="Laag_1" xmlns="http://www.w3.org/2000/svg" viewBox="0 0 270.22 270.24">
  <defs>
    <style>
      .cls-1 {
        fill: #ebeaea;
      }
    </style>
  </defs>
  <path id="Spotify" class="cls-1" d="M124.29,48.31h10.64c.1.24.32.18.51.19,4.36.26,8.68.82,12.95,1.77,23.88,5.32,42.77,18.09,56.27,38.46,12.95,19.55,17.36,41.12,13.59,64.25-3.28,20.07-12.42,37.2-27.43,50.9-21.78,19.87-47.47,27.43-76.56,22.69-19.51-3.17-36.1-12.25-49.67-26.58-14.61-15.43-22.76-33.84-24.47-55.06-.07-.88.1-1.81-.33-2.65v-1.18c.19-1.9.12-3.81,0-5.71v-1.18c.3-.12.18-.39.19-.59.33-6.27,1.24-12.46,2.89-18.52,5.63-20.67,17.11-37.34,34.45-49.9,13.25-9.6,28.11-15.05,44.42-16.53.85-.08,1.75.08,2.56-.34ZM110.2,98.23c-6.74-.03-13.45.38-20.13,1.14-5.15.59-10.28,1.33-15.33,2.48-4.65,1.06-7.4,5.55-6.39,10.2.99,4.51,5.47,7.38,10.09,6.45,15.77-3.16,31.67-3.98,47.67-2.39,11.98,1.19,23.7,3.67,35.12,7.47,7.97,2.65,15.69,5.92,23.14,9.8,5.96,3.1,12.9-1.26,12.58-7.97-.17-3.62-2.24-5.98-5.42-7.59-25.56-13.01-52.68-19.46-81.34-19.59ZM111.01,129.3c-7.02.03-13.2.41-19.36,1.2-4.42.57-8.83,1.26-13.16,2.35-3.62.91-5.77,4.64-4.91,8.24.88,3.68,4.49,6,8.16,5.21,8.42-1.81,16.93-2.87,25.55-3.05,10.01-.21,19.91.67,29.72,2.67,12.83,2.61,25.01,7.04,36.55,13.25,3.43,1.85,7.6.56,9.41-2.82,1.8-3.36.6-7.44-2.78-9.34-1.37-.77-2.77-1.49-4.18-2.19-20.72-10.33-42.68-15.39-64.99-15.52ZM110.29,157.15c-.62,0-1.25,0-1.87,0-.62.01-1.24.05-1.87.06-8.1.19-16.07,1.32-23.94,3.19-3.17.75-4.94,3.56-4.2,6.59.7,2.87,3.62,4.53,6.68,3.8,8.84-2.13,17.8-3.1,26.9-2.95,11.13.18,21.97,2.02,32.54,5.5,6.68,2.2,13.06,5.07,19.19,8.52,2.59,1.46,5.53.82,7.15-1.51,1.89-2.73.96-6.16-2.18-7.91-18.14-10.17-37.64-15.17-58.41-15.28Z"/>
</svg>