<?xml version="1.0" encoding="UTF-8"?>
<svg id="Laag_1" xmlns="http://www.w3.org/2000/svg" viewBox="0 0 270.22 270.24">
  <defs>
    <style>
      .cls-1 {
        fill: #ebeaea;
      }
    </style>
  </defs>
  <path id="Twitter" class="cls-1" d="M38.33,53.12v-.16c.29,0,.59,0,.88,0,19.45,0,38.91,0,58.36,0,1.87,2.48,3.74,4.97,5.62,7.44,11.11,14.68,22.22,29.36,33.33,44.04.61.81,1.23,1.61,1.86,2.44.24-.27.44-.49.63-.71,3.14-3.59,6.28-7.18,9.43-10.77,10.42-11.9,20.83-23.81,31.25-35.71,1.98-2.26,3.97-4.51,5.95-6.76.29,0,.59.02.88.02,9.2,0,18.4,0,27.6,0-.05.31-.31.49-.5.71-3.51,4.02-7.03,8.03-10.54,12.04-15.33,17.51-30.66,35.02-45.99,52.54-1.7,1.94-3.38,3.88-5.09,5.81-.28.31-.37.56-.03.86.06.05.1.13.15.19,11.74,15.52,23.48,31.03,35.23,46.55,7.97,10.54,15.95,21.07,23.92,31.61,4.62,6.11,9.25,12.23,13.87,18.34-.22.45-.62.21-.93.21-18.58.01-37.15.01-55.73.01-.29,0-.59-.02-.88-.03-.07-.11-.14-.22-.22-.33-6.92-9.05-13.85-18.1-20.77-27.15-7.93-10.37-15.87-20.74-23.8-31.11-.1-.14-.16-.35-.43-.34-1.07,1.21-2.14,2.44-3.22,3.67-14.91,17.03-29.82,34.06-44.73,51.09-1.2,1.37-2.44,2.7-3.57,4.14-.29.02-.59.05-.88.05-8.97,0-17.94,0-26.91,0-.29,0-.59-.03-.88-.04.47-.72,1.09-1.32,1.65-1.96,12.85-14.69,25.71-29.38,38.57-44.07,8.74-9.99,17.49-19.98,26.23-29.97.49-.56.49-.42.01-1.05-9.41-12.31-18.83-24.62-28.25-36.92-11-14.37-21.99-28.74-32.99-43.11-2.83-3.7-5.67-7.41-8.51-11.11-.15-.19-.22-.52-.57-.48ZM191.29,204.65c-.11-.38-.31-.57-.47-.78-2.15-2.85-4.3-5.69-6.45-8.53-12.02-15.88-24.04-31.77-36.06-47.65-10.71-14.15-21.42-28.3-32.13-42.45-8.93-11.8-17.86-23.6-26.77-35.41-.34-.45-.67-.64-1.25-.64-5.12.02-10.25.01-15.37.02-.25,0-.51-.05-.82.08.61.8,1.18,1.54,1.74,2.28,12.25,16.01,24.5,32.03,36.75,48.04,13.25,17.31,26.5,34.61,39.74,51.92,8.29,10.84,16.59,21.67,24.86,32.52.35.45.7.62,1.27.62,4.72-.02,9.44-.01,14.17-.01.24,0,.47,0,.79,0Z"/>
</svg>